<svg xmlns="http://www.w3.org/2000/svg" xmlns:xlink="http://www.w3.org/1999/xlink" width="1366" zoomAndPan="magnify" viewBox="0 0 1024.5 576" height="768" preserveAspectRatio="xMidYMid meet" version="1.0"><defs><filter x="0%" y="0%" width="100%" height="100%" id="313a6ac4ea"><feColorMatrix values="0 0 0 0 1 0 0 0 0 1 0 0 0 0 1 0 0 0 1 0" color-interpolation-filters="sRGB"/></filter><clipPath id="06e05d180f"><path d="M 0 0.140625 L 1024 0.140625 L 1024 575.859375 L 0 575.859375 Z M 0 0.140625 " clip-rule="nonzero"/></clipPath><clipPath id="23c415e70a"><path d="M 832 463 L 1024 463 L 1024 575.859375 L 832 575.859375 Z M 832 463 " clip-rule="nonzero"/></clipPath><mask id="27c90c6375"><g filter="url(#313a6ac4ea)"><rect x="-102.45" width="1229.4" fill="#000000" y="-57.6" height="691.2" fill-opacity="0.47"/></g></mask><clipPath id="fa03e415d6"><path d="M 0.875 0.285156 L 191.949219 0.285156 L 191.949219 112.730469 L 0.875 112.730469 Z M 0.875 0.285156 " clip-rule="nonzero"/></clipPath><clipPath id="2cf92e11cb"><rect x="0" width="192" y="0" height="113"/></clipPath><clipPath id="79a7856bf0"><path d="M 0 0.140625 L 243 0.140625 L 243 203 L 0 203 Z M 0 0.140625 " clip-rule="nonzero"/></clipPath><mask id="6778103aab"><g filter="url(#313a6ac4ea)"><rect x="-102.45" width="1229.4" fill="#000000" y="-57.6" height="691.2" fill-opacity="0.41"/></g></mask><clipPath id="f92c218261"><path d="M 0 48 L 241 48 L 241 200 L 0 200 Z M 0 48 " clip-rule="nonzero"/></clipPath><clipPath id="c12b1f1841"><path d="M -56.382812 70.726562 L 192.324219 -23.957031 L 242.730469 108.453125 L -5.976562 203.136719 Z M -56.382812 70.726562 " clip-rule="nonzero"/></clipPath><clipPath id="4020ddd815"><path d="M -56.382812 70.726562 L 192.324219 -23.957031 L 242.730469 108.453125 L -5.976562 203.136719 Z M -56.382812 70.726562 " clip-rule="nonzero"/></clipPath><clipPath id="c8cbb31179"><rect x="0" width="243" y="0" height="203"/></clipPath></defs><g clip-path="url(#06e05d180f)"><path fill="#ffffff" d="M 0 0.140625 L 1024 0.140625 L 1024 575.859375 L 0 575.859375 Z M 0 0.140625 " fill-opacity="1" fill-rule="nonzero"/><path fill="#ffffff" d="M 0 0.140625 L 1024 0.140625 L 1024 575.859375 L 0 575.859375 Z M 0 0.140625 " fill-opacity="1" fill-rule="nonzero"/><path fill="#fff8f1" d="M 0 0.140625 L 1023.25 0.140625 L 1023.25 575.859375 L 0 575.859375 Z M 0 0.140625 " fill-opacity="1" fill-rule="nonzero"/></g><g clip-path="url(#23c415e70a)"><g mask="url(#27c90c6375)"><g transform="matrix(1, 0, 0, 1, 832, 463)"><g clip-path="url(#2cf92e11cb)"><g clip-path="url(#fa03e415d6)"><path fill="#a12800" d="M 77.6875 0.285156 L 77.6875 0.3125 C 71.269531 0.445312 64.878906 1.457031 58.738281 3.308594 C 49.167969 6.183594 40.207031 11.039062 32.570312 17.484375 C 26.464844 22.636719 21.191406 28.832031 17.277344 35.839844 C 14.605469 40.628906 12.578125 45.796875 11.410156 51.183594 C 10.375 55.957031 10.019531 60.882812 10.441406 65.761719 C 10.582031 67.441406 10.820312 69.101562 11.128906 70.742188 L 11.128906 70.722656 C 11.671875 73.820312 11.691406 77.027344 11.40625 80.21875 C 11.023438 84.460938 10.117188 88.664062 8.921875 92.796875 C 7.578125 97.4375 5.867188 101.972656 3.933594 106.425781 C 2.988281 108.59375 1.933594 110.71875 0.890625 112.84375 L 3.78125 112.84375 C 4.640625 111.058594 5.539062 109.289062 6.332031 107.46875 C 8.296875 102.9375 10.050781 98.296875 11.433594 93.527344 C 12.660156 89.28125 13.609375 84.910156 14.011719 80.457031 C 14.304688 77.101562 14.296875 73.664062 13.703125 70.273438 L 13.703125 70.25 C 13.40625 68.683594 13.183594 67.113281 13.050781 65.539062 C 12.65625 60.933594 12.988281 56.261719 13.96875 51.734375 C 15.078125 46.625 17.007812 41.691406 19.566406 37.113281 C 23.3125 30.40625 28.375 24.449219 34.257812 19.480469 C 41.617188 13.269531 50.269531 8.585938 59.492188 5.8125 C 65.808594 3.910156 72.402344 2.914062 78.996094 2.90625 L 79.007812 2.90625 C 79.265625 2.90625 79.519531 2.90625 79.777344 2.90625 C 85.359375 2.960938 90.933594 3.726562 96.324219 5.175781 C 102.003906 6.695312 107.480469 8.972656 112.597656 11.875 C 118.175781 15.03125 123.335938 18.925781 128.011719 23.335938 C 131.675781 26.816406 135.601562 30.046875 139.816406 32.878906 C 145.382812 36.621094 151.472656 39.667969 157.957031 41.582031 C 163.085938 43.09375 168.445312 43.878906 173.816406 43.777344 C 180.015625 43.664062 186.199219 42.367188 191.898438 39.890625 L 191.898438 36.992188 C 191.558594 37.152344 191.222656 37.332031 190.878906 37.484375 C 185.503906 39.820312 179.648438 41.050781 173.78125 41.15625 C 168.699219 41.257812 163.601562 40.511719 158.710938 39.070312 C 152.527344 37.246094 146.671875 34.320312 141.292969 30.707031 C 137.21875 27.96875 133.402344 24.832031 129.828125 21.4375 C 125.015625 16.898438 119.6875 12.875 113.914062 9.601562 C 108.605469 6.59375 102.925781 4.230469 97.023438 2.648438 C 91.421875 1.144531 85.625 0.351562 79.824219 0.292969 L 79.03125 0.292969 Z M 80.113281 15.792969 C 79.246094 15.777344 78.382812 15.78125 77.523438 15.808594 C 47.253906 16.691406 21.683594 42.933594 26.308594 67.589844 C 28.960938 81.746094 24.421875 98.148438 17.996094 112.847656 L 191.890625 112.847656 L 191.890625 53.636719 C 171.660156 60.273438 144.886719 57.074219 119.320312 32.851562 C 106.84375 21.03125 93.117188 16.042969 80.113281 15.792969 Z M 80.113281 15.792969 " fill-opacity="1" fill-rule="nonzero"/></g></g></g></g></g><g clip-path="url(#79a7856bf0)"><g mask="url(#6778103aab)"><g transform="matrix(1, 0, 0, 1, 0, 0.000000000000055289)"><g clip-path="url(#c8cbb31179)"><g clip-path="url(#f92c218261)"><g clip-path="url(#c12b1f1841)"><g clip-path="url(#4020ddd815)"><path fill="#a12800" d="M 238.628906 103.875 C 226.109375 109.054688 213.058594 114.492188 199.269531 114.378906 C 190.191406 114.304688 180.453125 111.324219 173.710938 105.023438 C 186.6875 103.03125 196.199219 92.007812 197.960938 79.222656 C 198.753906 73.46875 198.144531 67.253906 194.929688 62.28125 C 191.753906 57.363281 186.125 55.160156 180.46875 56.691406 C 174.675781 58.261719 170.128906 62.953125 167.132812 67.960938 C 163.976562 73.230469 162.28125 79.304688 162.195312 85.441406 C 162.109375 91.558594 163.902344 97.175781 167.054688 101.921875 C 166.351562 101.839844 165.648438 101.722656 164.949219 101.574219 C 158.902344 100.269531 153.511719 96.890625 148.199219 93.871094 C 142.078125 90.394531 135.878906 87.0625 129.597656 83.878906 C 123.574219 80.828125 117.503906 77.753906 111.21875 75.261719 C 105.242188 72.890625 99.023438 71.191406 92.570312 70.957031 C 86.039062 70.71875 79.570312 71.800781 73.21875 73.234375 C 64.757812 75.140625 56.367188 77.40625 48.074219 79.988281 C 43.554688 70.367188 36.976562 61.328125 28.492188 55.128906 C 23.398438 51.410156 17.476562 48.847656 11.128906 48.515625 C 5.308594 48.203125 -0.523438 49.503906 -5.613281 52.363281 C -10.488281 55.101562 -14.632812 59.4375 -16.632812 64.707031 C -18.503906 69.652344 -18.601562 75.085938 -17.222656 80.164062 C -15.886719 85.109375 -12.941406 89.792969 -8.726562 92.773438 C -3.953125 96.148438 2.007812 97.074219 7.726562 96.4375 C 14.042969 95.734375 20.058594 93.417969 25.945312 91.140625 C 32.660156 88.539062 39.445312 86.121094 46.304688 83.925781 C 48.84375 89.824219 50.621094 96.050781 51.539062 102.398438 C 53.230469 114.039062 52.074219 126.125 47.597656 137.042969 C 43.304688 147.515625 36.210938 156.792969 27.277344 163.738281 C 22.863281 167.171875 18.015625 170.027344 12.835938 172.144531 C 14.308594 167.367188 15.417969 162.488281 15.621094 157.460938 C 15.875 151.042969 14.539062 144.378906 10.058594 139.53125 C 6.011719 135.164062 -0.078125 132.9375 -6 133.636719 C -12.066406 134.351562 -17.34375 138.214844 -20.207031 143.558594 C -23.417969 149.539062 -22.433594 156.304688 -20.542969 162.535156 C -18.695312 168.589844 -16.511719 175.472656 -10.058594 177.960938 C -4.414062 180.140625 1.964844 178.933594 7.59375 177.351562 C 7.632812 177.339844 7.671875 177.328125 7.710938 177.316406 C 7.542969 177.785156 7.371094 178.25 7.199219 178.714844 C 4.84375 185.078125 2.148438 191.300781 -0.847656 197.382812 C -1.765625 199.242188 1.167969 200.554688 2.085938 198.699219 C 5.476562 191.8125 8.484375 184.742188 11.046875 177.503906 C 11.210938 177.03125 11.378906 176.5625 11.539062 176.09375 C 33.578125 168.222656 50.371094 147.828125 54.4375 124.832031 C 56.675781 112.152344 55.289062 98.914062 50.90625 86.835938 C 50.4375 85.542969 49.929688 84.25 49.386719 82.960938 C 56.84375 80.648438 64.378906 78.578125 71.980469 76.796875 C 79.070312 75.132812 86.421875 73.71875 93.738281 74.226562 C 100.816406 74.714844 107.535156 77.070312 113.972656 79.929688 C 120.855469 82.984375 127.589844 86.410156 134.253906 89.914062 C 140.808594 93.367188 147.152344 97.210938 153.714844 100.640625 C 158.695312 103.246094 164.050781 105.234375 169.652344 105.320312 C 172.65625 108.707031 176.429688 111.496094 180.722656 113.5 C 192.945312 119.195312 206.609375 118.175781 219.253906 114.496094 C 226.261719 112.460938 233.019531 109.679688 239.757812 106.894531 C 241.683594 106.09375 240.546875 103.082031 238.628906 103.875 Z M -3.449219 175.90625 C -6.125 175.894531 -8.945312 175.34375 -11.140625 173.730469 C -13.679688 171.867188 -14.957031 168.898438 -15.988281 166.027344 C -18.046875 160.28125 -20.382812 153.609375 -18.410156 147.523438 C -16.652344 142.105469 -11.832031 137.738281 -6.148438 136.894531 C -0.578125 136.070312 5.183594 138.296875 8.621094 142.78125 C 12.304688 147.589844 12.867188 153.957031 12.253906 159.800781 C 11.753906 164.523438 10.527344 169.089844 9.03125 173.578125 C 5.003906 174.949219 0.753906 175.925781 -3.449219 175.90625 Z M 31.4375 85.621094 C 25.558594 87.777344 19.78125 90.316406 13.734375 91.984375 C 8.328125 93.472656 2.347656 94.207031 -3.027344 92.1875 C -12.164062 88.746094 -16.414062 77.949219 -14.492188 68.789062 C -12.230469 58.003906 -1.230469 51.804688 9.175781 51.664062 C 21.359375 51.496094 31.183594 60.214844 38.027344 69.46875 C 40.691406 73.078125 43.019531 76.933594 44.972656 80.96875 C 40.425781 82.425781 35.910156 83.980469 31.4375 85.621094 Z M 170.683594 101.703125 C 163.578125 92.453125 164.074219 79.492188 169.816406 69.695312 C 172.492188 65.128906 176.863281 60.546875 182.292969 59.554688 C 188.023438 58.507812 192.21875 62.554688 193.964844 67.664062 C 197.667969 78.5 192.453125 91.816406 183.097656 98.03125 C 179.464844 100.441406 175.257812 101.835938 170.964844 102.054688 C 170.871094 101.9375 170.777344 101.824219 170.683594 101.703125 Z M 170.683594 101.703125 " fill-opacity="1" fill-rule="nonzero"/></g></g></g></g></g></g></g></svg>